<svg width="61" height="61" viewBox="0 0 61 61" fill="none" xmlns="http://www.w3.org/2000/svg">
<rect x="1.5" y="1.5" width="58" height="58" rx="7.5" fill="#002855" stroke="white" stroke-width="3"/>
<g clip-path="url(#clip0_195_2118)">
<path d="M19.8458 14.9421C19.588 14.9601 19.3659 15.1689 19.3238 15.4519L19.0527 17.285H16.42C16.0859 17.285 15.7654 17.4177 15.5291 17.654C15.2928 17.8903 15.16 18.2108 15.16 18.545V26.195H14.26C14.0801 26.1949 13.9023 26.2334 13.7386 26.3078C13.5748 26.3822 13.4288 26.4908 13.3105 26.6263C13.1922 26.7618 13.1043 26.921 13.0526 27.0934C13.001 27.2657 12.9869 27.447 13.0112 27.6253L15.1712 45.6246V45.6253L15.1806 45.68V45.6814L15.1914 45.7354V45.7362L15.2058 45.7902V45.792C15.2108 45.81 15.2162 45.8277 15.222 45.8452V45.846C15.2277 45.8637 15.2341 45.8812 15.241 45.8985V45.8992C15.2475 45.9165 15.2545 45.9337 15.2619 45.9507V45.9514L15.2853 46.0026V46.0033C15.2937 46.0201 15.3024 46.0365 15.3112 46.0526V46.0533C15.3238 46.0762 15.337 46.0988 15.3508 46.121C15.3668 46.1467 15.3836 46.1719 15.4012 46.1966L15.402 46.1973C15.4128 46.2124 15.424 46.2273 15.4358 46.242C15.4595 46.2711 15.4844 46.2997 15.5103 46.3269L15.511 46.3276C15.5238 46.3411 15.5368 46.3543 15.5503 46.3672L15.551 46.3676C15.6192 46.4326 15.6944 46.4897 15.7753 46.5379H15.776L15.7936 46.5476C15.8203 46.563 15.8474 46.5775 15.875 46.5912H15.8757C15.9575 46.6303 16.0434 46.6605 16.1317 46.6812L16.1425 46.684C16.1607 46.6884 16.1794 46.6921 16.1979 46.6952H16.1986C16.2543 46.7046 16.3104 46.7107 16.3668 46.7136H16.3675C16.3848 46.7145 16.4023 46.715 16.42 46.715H45.58C45.7696 46.7151 45.9568 46.6724 46.1275 46.5901C46.2983 46.5079 46.4484 46.3881 46.5664 46.2398V46.2391C46.6368 46.1504 46.6949 46.0527 46.7392 45.9486V45.9478L46.7608 45.896V45.8953C46.7934 45.8081 46.8162 45.7175 46.8289 45.6253L48.9889 27.6253C49.0132 27.447 48.999 27.2657 48.9474 27.0934C48.8958 26.921 48.8079 26.7618 48.6895 26.6263C48.5712 26.4908 48.4253 26.3822 48.2615 26.3078C48.0977 26.2334 47.9199 26.1949 47.74 26.195H46.84V21.8588L47.1784 19.5728C47.226 19.2488 47.02 18.9507 46.7176 18.9057L19.9581 14.9464C19.9209 14.9411 19.8833 14.9396 19.8458 14.9421ZM26.0263 17.0438L29.4758 17.5543C30.329 18.0018 31.1936 18.4271 32.0689 18.8298C33.8297 19.6372 35.6186 20.382 37.4321 21.0628C37.9106 21.2425 38.325 21.3904 38.7048 21.5236C38.3944 21.7717 38.0895 22.0204 37.7788 22.2674L37.4379 22.5381C35.7132 21.704 33.7278 20.8346 31.1491 19.8831C29.33 19.2117 27.6254 18.2336 26.0263 17.0438ZM30.7833 17.7476L34.8096 18.343C35.8562 18.788 36.9118 19.2115 37.9757 19.6131C38.7116 19.8892 39.3427 20.1117 39.8103 20.2669C40.044 20.3446 40.2373 20.4058 40.3791 20.4469C40.5206 20.4883 40.6397 20.5095 40.5962 20.5045L40.5915 20.5488C41.0552 20.1703 41.516 19.7883 41.9739 19.4029L43.4586 19.6228C42.0013 20.876 40.3723 22.185 38.7426 23.4802C37.6087 24.3782 36.4805 25.2831 35.3578 26.195H33.574C34.928 25.0653 36.4674 23.8489 38.0413 22.5979C38.5536 22.1904 39.0601 21.7814 39.5691 21.3724C39.5259 21.358 39.5 21.3508 39.4543 21.3357C38.8257 21.1242 38.201 20.9013 37.5805 20.6672C35.7764 19.9902 33.9969 19.2495 32.2453 18.4467C31.7549 18.2203 31.2673 17.9872 30.7833 17.7476ZM20.0654 18.0079C24.6151 22.1065 28.6215 24.1124 33.5208 25.6816C33.3087 25.8573 33.1168 26.0236 32.9145 26.195H27.2074C25.5694 22.8686 22.8028 20.6758 20.0046 18.4143L20.0654 18.0079ZM36.5361 18.5983L41.4094 19.3197C41.1189 19.5627 40.8342 19.8025 40.5328 20.0498C40.5188 20.0462 40.5112 20.0455 40.4968 20.0412C40.3114 19.9861 40.1269 19.9277 39.9435 19.8662C39.3335 19.6609 38.7273 19.4445 38.1252 19.2171C37.5933 19.0163 37.0636 18.8101 36.5361 18.5983ZM19.9329 18.9014C22.6048 21.061 25.1767 23.1368 26.7438 26.195H25.4524C24.0844 23.8201 22.0224 22.059 19.7403 20.2035L19.9329 18.9014ZM44.0137 19.7053L45.9966 19.9983L45.8158 21.2198C45.8047 21.2173 45.7942 21.213 45.7823 21.2112L45.778 21.2104C45.714 21.2012 45.6487 21.2048 45.586 21.2208C45.5232 21.2368 45.4643 21.265 45.4125 21.3039C45.3607 21.3427 45.317 21.3913 45.284 21.447C45.251 21.5027 45.2292 21.5643 45.22 21.6284C45.2108 21.6925 45.2144 21.7577 45.2304 21.8205C45.2464 21.8832 45.2746 21.9421 45.3134 21.994C45.3523 22.0458 45.4009 22.0894 45.4566 22.1225C45.5123 22.1555 45.5739 22.1772 45.638 22.1864C45.6499 22.1882 45.661 22.1871 45.6726 22.1878L45.5278 23.1696C45.5163 23.167 45.5055 23.1627 45.494 23.1609L45.4897 23.1602C45.3603 23.1416 45.2287 23.1751 45.1241 23.2535C45.0194 23.3318 44.9501 23.4486 44.9315 23.578C44.9129 23.7074 44.9464 23.8389 45.0248 23.9436C45.1031 24.0483 45.2199 24.1175 45.3493 24.1362C45.3608 24.138 45.3727 24.1369 45.3842 24.1376L45.2388 25.1193C45.2272 25.1168 45.2168 25.1125 45.2049 25.1107C45.077 25.0946 44.9478 25.1293 44.8451 25.2073C44.7424 25.2853 44.6744 25.4004 44.6555 25.528C44.6367 25.6556 44.6686 25.7855 44.7444 25.8898C44.8201 25.9942 44.9338 26.0647 45.0609 26.0863C45.0724 26.0877 45.0843 26.0863 45.0958 26.0874L45.0876 26.1464L44.409 26.1356C44.3624 26.0725 44.3014 26.0216 44.231 25.987C44.1607 25.9524 44.083 25.9352 44.0047 25.9369C43.8351 25.8512 43.6728 25.7662 43.5068 25.6813C43.5676 25.6285 43.6145 25.5616 43.6435 25.4864C43.6725 25.4113 43.6826 25.3302 43.673 25.2503C43.6634 25.1703 43.6344 25.0939 43.5885 25.0278C43.5426 24.9616 43.4811 24.9077 43.4096 24.8707C43.338 24.8338 43.2585 24.8149 43.178 24.8158C43.0975 24.8167 43.0184 24.8372 42.9477 24.8757C42.8769 24.9142 42.8167 24.9694 42.7722 25.0365C42.7277 25.1037 42.7003 25.1807 42.6925 25.2608C42.3159 25.0628 41.9476 24.8666 41.5783 24.67C41.51 24.6029 41.4237 24.5572 41.3299 24.5383C41.1427 24.4386 40.9515 24.3381 40.7632 24.238C40.8517 24.1432 40.8992 24.0173 40.8955 23.8877C40.8918 23.758 40.8371 23.6351 40.7434 23.5454L40.2283 23.9562C39.9518 23.8104 39.6577 23.6613 39.3747 23.5148C40.9875 22.2318 42.5881 20.9433 44.0137 19.7053ZM17.68 19.805H18.6798L17.734 26.195H17.68V19.805ZM45.3475 20.426C45.0134 20.4577 44.7193 20.557 44.4093 20.727C44.4492 20.8514 44.5369 20.9548 44.6531 21.0146C44.7693 21.0743 44.9045 21.0855 45.0289 21.0456C45.1533 21.0056 45.2567 20.918 45.3165 20.8018C45.3762 20.6856 45.3874 20.5504 45.3475 20.426ZM19.6676 20.6917C21.7891 22.4226 23.6762 24.0598 24.965 26.195H21.3103L22.6423 24.5631L19.4772 21.9798L19.6676 20.6917ZM44.0058 20.9833C43.7861 21.1345 43.5522 21.308 43.28 21.524C43.3268 21.7202 43.4888 21.8682 43.6879 21.8977C43.7518 21.9072 43.8171 21.904 43.8798 21.8883C43.9426 21.8726 44.0016 21.8447 44.0535 21.8061C44.1055 21.7676 44.1493 21.7192 44.1825 21.6636C44.2157 21.6081 44.2376 21.5466 44.247 21.4826C44.2614 21.3848 44.2462 21.2849 44.2032 21.1958C44.1602 21.1068 44.0914 21.0327 44.0058 20.9833ZM42.9031 21.8235L42.1755 22.4038C42.2014 22.4783 42.2448 22.5455 42.302 22.5998C42.3592 22.654 42.4286 22.6938 42.5043 22.7157C42.58 22.7376 42.6599 22.741 42.7373 22.7257C42.8146 22.7104 42.8871 22.6767 42.9488 22.6276C43.0105 22.5784 43.0594 22.5152 43.0916 22.4432C43.1238 22.3713 43.1383 22.2926 43.1338 22.2139C43.1293 22.1352 43.106 22.0587 43.0659 21.9908C43.0257 21.923 42.9699 21.8654 42.9031 21.8235ZM44.5598 22.0377C44.4337 22.0456 44.3154 22.1015 44.2293 22.194C44.1433 22.2866 44.096 22.4086 44.0973 22.5349C44.0986 22.6613 44.1483 22.7823 44.2362 22.8731C44.3241 22.9638 44.4435 23.0174 44.5697 23.0227C44.696 23.028 44.8194 22.9847 44.9146 22.9016C45.0099 22.8186 45.0696 22.7022 45.0815 22.5764C45.0934 22.4506 45.0565 22.325 44.9785 22.2256C44.9006 22.1262 44.7874 22.0605 44.6624 22.042H44.6588C44.626 22.0373 44.5929 22.0359 44.5598 22.0377ZM41.8252 22.6839L41.0757 23.2808C41.1072 23.3484 41.1536 23.408 41.2114 23.455C41.2692 23.5021 41.337 23.5355 41.4095 23.5526C41.4821 23.5696 41.5576 23.5701 41.6304 23.5537C41.7031 23.5374 41.7712 23.5048 41.8295 23.4584C41.8879 23.4119 41.9349 23.3528 41.9671 23.2856C41.9993 23.2183 42.0158 23.1447 42.0154 23.0701C42.0149 22.9955 41.9976 22.922 41.9647 22.8552C41.9318 22.7883 41.8841 22.7297 41.8252 22.6839ZM43.4405 22.869C43.3146 22.8773 43.1966 22.9336 43.1109 23.0263C43.0252 23.1191 42.9784 23.2412 42.9802 23.3674C42.9819 23.4937 43.032 23.6145 43.1201 23.7048C43.2083 23.7952 43.3278 23.8483 43.4539 23.8532C43.5801 23.8581 43.7033 23.8143 43.7982 23.731C43.893 23.6477 43.9523 23.5311 43.9638 23.4054C43.9752 23.2797 43.9379 23.1543 43.8597 23.0552C43.7814 22.9562 43.6681 22.8909 43.5432 22.8729L43.5396 22.8726C43.5068 22.8681 43.4736 22.8669 43.4405 22.869ZM42.3209 23.6991C42.195 23.7071 42.0769 23.7631 41.991 23.8556C41.9051 23.9481 41.858 24.0701 41.8593 24.1963C41.8607 24.3225 41.9104 24.4434 41.9983 24.534C42.0861 24.6246 42.2054 24.6781 42.3315 24.6834C42.4577 24.6887 42.581 24.6453 42.6761 24.5624C42.7712 24.4794 42.8309 24.3631 42.8428 24.2374C42.8547 24.1117 42.8179 23.9863 42.74 23.8869C42.6622 23.7876 42.5491 23.7219 42.4243 23.7034L42.4203 23.7027C42.3874 23.6982 42.3541 23.697 42.3209 23.6991ZM44.2707 23.9875C44.1447 23.9946 44.0262 24.0498 43.9397 24.1417C43.8531 24.2336 43.8052 24.3552 43.8057 24.4814C43.8061 24.6076 43.855 24.7289 43.9423 24.8201C44.0295 24.9113 44.1484 24.9656 44.2745 24.9718C44.4006 24.9779 44.5242 24.9355 44.6199 24.8532C44.7156 24.7709 44.776 24.655 44.7888 24.5294C44.8016 24.4038 44.7657 24.2781 44.6885 24.1782C44.6113 24.0783 44.4988 24.0119 44.374 23.9925L44.3701 23.9918C44.3372 23.9871 44.3039 23.9856 44.2707 23.9875ZM19.0293 25.0052L20.4873 26.195H18.8536L19.0293 25.0052ZM15.7036 28.715H46.2964L44.4802 44.195H17.5198L15.7036 28.715Z" fill="white"/>
</g>
<defs>
<clipPath id="clip0_195_2118">
<rect width="36" height="36" fill="white" transform="translate(13 14)"/>
</clipPath>
</defs>
</svg>
