<svg width="61" height="341" viewBox="0 0 61 341" fill="none" xmlns="http://www.w3.org/2000/svg">
<rect y="71" width="61" height="270" rx="9" fill="white"/>
<rect y="71" width="61" height="61" rx="9" fill="#D31B20"/>
<path d="M29.2917 90.0208C30.4162 90.0208 31.5185 90.3347 32.4744 90.9271C33.4303 91.5195 34.2019 92.367 34.7023 93.3741C35.2027 94.3812 35.4121 95.508 35.3069 96.6276C35.2017 97.7473 34.7861 98.8154 34.1069 99.7117H32.6206V96.1422C32.629 95.6997 32.5492 95.2598 32.3856 94.8485C32.2221 94.4372 31.9782 94.0625 31.6682 93.7466C31.3581 93.4306 30.9882 93.1796 30.5801 93.0082C30.1719 92.8369 29.7337 92.7486 29.2911 92.7486C28.8484 92.7486 28.4102 92.8369 28.002 93.0082C27.5939 93.1796 27.224 93.4306 26.914 93.7466C26.6039 94.0625 26.36 94.4372 26.1965 94.8485C26.033 95.2598 25.9531 95.6997 25.9615 96.1422V101.105C24.8771 100.389 24.0524 99.343 23.6096 98.1215C23.1668 96.9 23.1296 95.5684 23.5034 94.3241C23.8773 93.0798 24.6423 91.9891 25.685 91.2139C26.7276 90.4388 27.9924 90.0204 29.2917 90.0208ZM36.4341 100.594C37.361 99.1321 37.8173 97.4213 37.7412 95.6922C37.6651 93.9631 37.0605 92.2989 36.0088 90.9243C34.9571 89.5497 33.509 88.5308 31.86 88.0051C30.211 87.4794 28.4404 87.4723 26.7872 87.9846C25.134 88.497 23.6777 89.5042 22.615 90.8702C21.5522 92.2363 20.9342 93.8955 20.8441 95.624C20.7541 97.3524 21.1965 99.0669 22.1116 100.536C23.0267 102.005 24.3704 103.158 25.9615 103.839V105.251L23.3696 104.674C22.9224 104.575 22.4557 104.613 22.0307 104.784C21.6057 104.955 21.2422 105.25 20.988 105.631L19.851 107.337L25.0444 114.094C25.3557 114.499 25.7556 114.826 26.2133 115.052C26.671 115.277 27.1744 115.394 27.6846 115.395H36.2468C37.6811 115.395 38.9535 114.476 39.4066 113.117L41.5611 106.652C41.8023 105.927 41.7867 105.14 41.517 104.424C41.2473 103.709 40.7398 103.108 40.0797 102.722L36.4341 100.594ZM29.2917 95.2287C29.7955 95.2287 30.204 95.6372 30.204 96.1422V102.128H34.0211C34.1828 102.129 34.3416 102.171 34.4815 102.253L38.8617 104.808C39.235 105.026 39.4054 105.477 39.2677 105.887L37.1144 112.352C37.0533 112.534 36.9368 112.692 36.7812 112.804C36.6256 112.917 36.4387 112.977 36.2468 112.978H27.6846C27.5446 112.978 27.4064 112.946 27.2808 112.884C27.1551 112.822 27.0452 112.732 26.9596 112.621L22.821 107.237L22.9419 107.056L28.3782 108.264V96.141C28.3782 95.636 28.7866 95.2287 29.2917 95.2287Z" fill="white"/>
<path d="M44 157H18C17.4477 157 17 157.448 17 158V178C17 178.552 17.4477 179 18 179H44C44.5523 179 45 178.552 45 178V158C45 157.448 44.5523 157 44 157Z" stroke="black" stroke-width="2" stroke-dasharray="2 2"/>
<path d="M34 170H16V180H34V170Z" fill="#272727"/>
<path d="M23.8125 230.938L28.625 226.812M34.125 225.438L38.25 227.5M40.3125 231.625L36.875 241.25M33.4375 241.938L23.8125 235.062M28.625 224.75C28.625 225.479 28.9147 226.179 29.4305 226.695C29.9462 227.21 30.6457 227.5 31.375 227.5C32.1043 227.5 32.8038 227.21 33.3195 226.695C33.8353 226.179 34.125 225.479 34.125 224.75C34.125 224.021 33.8353 223.321 33.3195 222.805C32.8038 222.29 32.1043 222 31.375 222C30.6457 222 29.9462 222.29 29.4305 222.805C28.9147 223.321 28.625 224.021 28.625 224.75ZM38.25 228.875C38.25 229.604 38.5397 230.304 39.0555 230.82C39.5712 231.335 40.2707 231.625 41 231.625C41.7293 231.625 42.4288 231.335 42.9445 230.82C43.4603 230.304 43.75 229.604 43.75 228.875C43.75 228.146 43.4603 227.446 42.9445 226.93C42.4288 226.415 41.7293 226.125 41 226.125C40.2707 226.125 39.5712 226.415 39.0555 226.93C38.5397 227.446 38.25 228.146 38.25 228.875ZM19 233C19 233.729 19.2897 234.429 19.8055 234.945C20.3212 235.46 21.0207 235.75 21.75 235.75C22.4793 235.75 23.1788 235.46 23.6945 234.945C24.2103 234.429 24.5 233.729 24.5 233C24.5 232.271 24.2103 231.571 23.6945 231.055C23.1788 230.54 22.4793 230.25 21.75 230.25C21.0207 230.25 20.3212 230.54 19.8055 231.055C19.2897 231.571 19 232.271 19 233ZM32.75 244C32.75 244.729 33.0397 245.429 33.5555 245.945C34.0712 246.46 34.7707 246.75 35.5 246.75C36.2293 246.75 36.9288 246.46 37.4445 245.945C37.9603 245.429 38.25 244.729 38.25 244C38.25 243.271 37.9603 242.571 37.4445 242.055C36.9288 241.54 36.2293 241.25 35.5 241.25C34.7707 241.25 34.0712 241.54 33.5555 242.055C33.0397 242.571 32.75 243.271 32.75 244Z" stroke="black" stroke-width="2" stroke-linecap="round" stroke-linejoin="round"/>
<path fill-rule="evenodd" clip-rule="evenodd" d="M42.7512 294.453C42.5869 294.057 42.3462 293.697 42.0427 293.394C41.4299 292.783 40.5989 292.439 39.7325 292.439C38.866 292.439 38.0351 292.783 37.4223 293.394L23.181 307.611C23.0151 307.777 22.8805 307.971 22.7836 308.185L20.5225 313.148C20.0219 314.247 21.1538 315.378 22.2543 314.878L27.2262 312.622C27.4403 312.525 27.6351 312.39 27.8013 312.224L42.0427 298.008C42.3462 297.705 42.5869 297.345 42.7512 296.95C42.9155 296.554 43 296.13 43 295.701C43 295.273 42.9155 294.849 42.7512 294.453ZM24.9867 289.244C24.765 289.085 24.4992 289 24.2266 289C23.9539 289 23.6882 289.085 23.4665 289.244C23.2447 289.402 23.0782 289.626 22.9901 289.883L22.8215 290.377C22.6278 290.942 22.3068 291.456 21.8831 291.879C21.4594 292.302 20.9443 292.622 20.3774 292.815L19.8833 292.985C19.6256 293.073 19.4019 293.239 19.2435 293.461C19.0851 293.682 19 293.947 19 294.219C19 294.491 19.0851 294.756 19.2435 294.977C19.4019 295.199 19.6256 295.365 19.8833 295.453L20.3774 295.622C20.9442 295.815 21.4591 296.135 21.8826 296.558C22.306 296.981 22.6268 297.496 22.8202 298.061L22.9901 298.555C23.0785 298.812 23.2451 299.035 23.4668 299.193C23.6885 299.351 23.9541 299.436 24.2266 299.436C24.499 299.436 24.7647 299.351 24.9864 299.193C25.2081 299.035 25.3747 298.812 25.463 298.555L25.6316 298.061C25.8254 297.496 26.1464 296.982 26.5701 296.559C26.9938 296.136 27.5088 295.816 28.0758 295.623L28.5698 295.453C28.8276 295.365 29.0513 295.199 29.2096 294.977C29.368 294.756 29.4532 294.491 29.4532 294.219C29.4532 293.947 29.368 293.682 29.2096 293.461C29.0513 293.239 28.8276 293.073 28.5698 292.985L28.0758 292.816C27.5089 292.623 26.994 292.303 26.5706 291.88C26.1471 291.457 25.8264 290.942 25.6329 290.377L25.463 289.883C25.375 289.626 25.2084 289.402 24.9867 289.244ZM41.5001 297L38.2926 293.998L31.5 301L24.1247 307.908L26.2854 309.251L27.5 311.5L31.5 307L36 302.5L41.5001 297Z" fill="black"/>
<rect width="61" height="61" rx="9" fill="white"/>
<path d="M30 33.75C32.0711 33.75 33.75 32.0711 33.75 30C33.75 27.9289 32.0711 26.25 30 26.25C27.9289 26.25 26.25 27.9289 26.25 30C26.25 32.0711 27.9289 33.75 30 33.75Z" stroke="black" stroke-width="3"/>
<path d="M40.235 28.6675C40.72 29.2575 40.9625 29.5513 40.9625 30C40.9625 30.4487 40.72 30.7425 40.235 31.3325C38.46 33.4875 34.545 37.5 30 37.5C25.455 37.5 21.54 33.4875 19.765 31.3325C19.28 30.7425 19.0375 30.4487 19.0375 30C19.0375 29.5513 19.28 29.2575 19.765 28.6675C21.54 26.5125 25.455 22.5 30 22.5C34.545 22.5 38.46 26.5125 40.235 28.6675Z" stroke="black" stroke-width="3"/>
</svg>
